<svg id="visual" viewBox="0 0 900 600" width="900" height="600" xmlns="http://www.w3.org/2000/svg" xmlns:xlink="http://www.w3.org/1999/xlink" version="1.1"><path d="M0 495L21.5 500.3C43 505.7 86 516.3 128.8 519.8C171.7 523.3 214.3 519.7 257.2 510.8C300 502 343 488 385.8 485.8C428.7 483.7 471.3 493.3 514.2 501.5C557 509.7 600 516.3 642.8 518.8C685.7 521.3 728.3 519.7 771.2 512.5C814 505.3 857 492.7 878.5 486.3L900 480L900 601L878.5 601C857 601 814 601 771.2 601C728.3 601 685.7 601 642.8 601C600 601 557 601 514.2 601C471.3 601 428.7 601 385.8 601C343 601 300 601 257.2 601C214.3 601 171.7 601 128.8 601C86 601 43 601 21.5 601L0 601Z" fill="#5b6cf2" stroke-linecap="round" stroke-linejoin="miter"></path></svg>